<svg id="svg8" xmlns="http://www.w3.org/2000/svg" xmlns:xlink="http://www.w3.org/1999/xlink" viewBox="0 0 586.03 150.52"><defs><style>.cls-1{fill:none;stroke:#d4e0a7;stroke-linecap:round;stroke-miterlimit:10;stroke-width:4px;}.cls-2{isolation:isolate;}.cls-3{fill:#5d5d5d;}.cls-4{fill:#e99b27;}.cls-10,.cls-11,.cls-12,.cls-13,.cls-14,.cls-15,.cls-16,.cls-17,.cls-18,.cls-19,.cls-20,.cls-21,.cls-4,.cls-5,.cls-6,.cls-7,.cls-8,.cls-9{fill-rule:evenodd;}.cls-5{fill:#fcbc5e;}.cls-6{fill:#ea4827;}.cls-7{fill:#fd967d;}.cls-8{fill:#cf3;}.cls-9{fill:#e4ea27;}.cls-10{fill:#faff65;}.cls-11{fill:url(#linear-gradient);}.cls-12{fill:url(#linear-gradient-2);}.cls-13{fill:url(#linear-gradient-3);}.cls-14{fill:url(#linear-gradient-4);}.cls-15{fill:url(#linear-gradient-5);}.cls-16{fill:url(#linear-gradient-6);}.cls-17{fill:url(#linear-gradient-7);}.cls-18{fill:url(#linear-gradient-8);}.cls-19{fill:url(#linear-gradient-9);}.cls-20{fill:url(#linear-gradient-10);}.cls-21{fill:url(#linear-gradient-11);}</style><linearGradient id="linear-gradient" x1="120.82" y1="106.65" x2="120.82" y2="8.54" gradientUnits="userSpaceOnUse"><stop offset="0" stop-color="#2aba5c"/><stop offset="0.15" stop-color="#69da62"/><stop offset="0.31" stop-color="#b3ff6a"/><stop offset="0.56" stop-color="#ce9e52"/><stop offset="0.77" stop-color="#e35340"/><stop offset="0.92" stop-color="#f02535"/><stop offset="1" stop-color="#f51331"/></linearGradient><linearGradient id="linear-gradient-2" x1="137.38" y1="106.65" x2="137.38" y2="8.54" xlink:href="#linear-gradient"/><linearGradient id="linear-gradient-3" x1="154.07" y1="106.65" x2="154.07" y2="8.54" xlink:href="#linear-gradient"/><linearGradient id="linear-gradient-4" x1="224.57" y1="8.54" x2="224.57" y2="99.37" gradientUnits="userSpaceOnUse"><stop offset="0" stop-color="#2aba5c"/><stop offset="0.22" stop-color="#69da62"/><stop offset="0.45" stop-color="#b3ff6a"/><stop offset="0.55" stop-color="#c3c85d"/><stop offset="0.67" stop-color="#d4884d"/><stop offset="0.78" stop-color="#e25641"/><stop offset="0.87" stop-color="#ed3138"/><stop offset="0.95" stop-color="#f31b33"/><stop offset="1" stop-color="#f51331"/></linearGradient><linearGradient id="linear-gradient-5" x1="208.02" y1="8.54" x2="208.02" y2="99.37" xlink:href="#linear-gradient-4"/><linearGradient id="linear-gradient-6" x1="241.12" y1="8.54" x2="241.12" y2="99.37" xlink:href="#linear-gradient-4"/><linearGradient id="linear-gradient-7" x1="33.24" y1="8.54" x2="33.24" y2="97.6" xlink:href="#linear-gradient"/><linearGradient id="linear-gradient-8" x1="49.8" y1="8.54" x2="49.8" y2="97.6" xlink:href="#linear-gradient"/><linearGradient id="linear-gradient-9" x1="66.35" y1="8.54" x2="66.35" y2="97.6" xlink:href="#linear-gradient"/><linearGradient id="linear-gradient-10" x1="19.4" y1="54.23" x2="255.81" y2="54.23" gradientUnits="userSpaceOnUse"><stop offset="0" stop-color="#2aba5c"/><stop offset="0.17" stop-color="#4dbd5c"/><stop offset="0.44" stop-color="#7cc15b"/><stop offset="0.68" stop-color="#9ec45a"/><stop offset="0.87" stop-color="#b3c65a"/><stop offset="1" stop-color="#bbc75a"/></linearGradient><linearGradient id="linear-gradient-11" x1="19.4" y1="54.23" x2="255.81" y2="54.23" gradientUnits="userSpaceOnUse"><stop offset="0" stop-color="#d26834"/><stop offset="0.42" stop-color="#e04733"/><stop offset="1" stop-color="#f51331"/></linearGradient></defs><line class="cls-1" x1="278.91" y1="141.56" x2="278.91" y2="2.96"/><g class="cls-2"><path class="cls-3" d="M339.09,57.06a19.88,19.88,0,0,1-6.92,11.39,21.2,21.2,0,0,1-23.28.88,18.15,18.15,0,0,1-6.42-6.5c-.4-.8-.77-1.57-1.1-2.3a14.5,14.5,0,0,1-.75-2.85,85.43,85.43,0,0,1-.57-12.33,85.34,85.34,0,0,1,.57-12.41,14.34,14.34,0,0,1,1.85-5.07,18.62,18.62,0,0,1,6.42-6.57,19.42,19.42,0,0,1,10.85-3q8,.07,13,4.56a20,20,0,0,1,6.35,11.2h-8.85a11.66,11.66,0,0,0-3.7-5.47,11.13,11.13,0,0,0-6.8-2.23,12,12,0,0,0-5.07,1.13,10.56,10.56,0,0,0-3.47,2.74A8.69,8.69,0,0,0,309,34.66a61.76,61.76,0,0,0-.6,10.69A60.47,60.47,0,0,0,309,56a8.73,8.73,0,0,0,2.16,4.49,9.77,9.77,0,0,0,3.47,2.66,10,10,0,0,0,5.07,1.21c4.68,0,8.19-2.42,10.5-7.27Z" transform="translate(-9.2 -8.45)"/><path class="cls-3" d="M373.21,60.06h-20.9L348.08,72h-8.84l20-53.21h7l20,53.21h-8.8Zm-2.38-7.16-8-23.24h-.15l-8,23.24Z" transform="translate(-9.2 -8.45)"/><path class="cls-3" d="M392.18,18.74H400l15.79,34.67,15.49-34.67h7.9V72h-8.35V38.78h-.19L419.16,64.33h-7L400.68,38.78h-.15V72h-8.35V18.74Z" transform="translate(-9.2 -8.45)"/><path class="cls-3" d="M450.82,18.74h21.35q8.13.07,12.21,4A13.57,13.57,0,0,1,488.5,33a11.9,11.9,0,0,1-1.63,6.28,10.38,10.38,0,0,1-2.49,2.7,18.17,18.17,0,0,1-4,2.45v.14a11.12,11.12,0,0,1,6.8,4.56,14.52,14.52,0,0,1,2.16,7.7q-.07,6.9-4.46,10.92A15,15,0,0,1,474,72h-23.2V18.74Zm8.35,7.19V41.15h12.06c3,0,5.29-.76,6.72-2.3a7.07,7.07,0,0,0,2.2-5.33,7.41,7.41,0,0,0-2.2-5.43q-2.15-2.09-6.72-2.16Zm0,22.41v16H472q4.65-.08,6.8-2.45A7.89,7.89,0,0,0,481,56.33a8,8,0,0,0-2.16-5.62q-2.15-2.3-6.8-2.37Z" transform="translate(-9.2 -8.45)"/><path class="cls-3" d="M526.25,60.06h-20.9L501.12,72h-8.84l20-53.21h7l20,53.21h-8.8Zm-2.39-7.16-8-23.24h-.15l-8,23.24Z" transform="translate(-9.2 -8.45)"/><path class="cls-3" d="M545.22,18.74h7.85l15.8,34.67,15.49-34.67h7.9V72h-8.35V38.78h-.19L572.2,64.33h-7L553.72,38.78h-.15V72h-8.36V18.74Z" transform="translate(-9.2 -8.45)"/></g><g class="cls-2"><path class="cls-3" d="M310.52,106.29a6.11,6.11,0,0,1-2,3.45,5.77,5.77,0,0,1-3.64,1.19,5.66,5.66,0,0,1-3.17-.93,5.32,5.32,0,0,1-1.88-2c-.12-.24-.23-.47-.32-.69a4.56,4.56,0,0,1-.22-.87,25.14,25.14,0,0,1-.17-3.73,25.43,25.43,0,0,1,.17-3.77,4.15,4.15,0,0,1,.54-1.53,5.72,5.72,0,0,1,5.05-2.9,5.43,5.43,0,0,1,3.81,1.38,6.13,6.13,0,0,1,1.86,3.4h-2.59a3.53,3.53,0,0,0-1.09-1.66,3.17,3.17,0,0,0-2-.68,3.36,3.36,0,0,0-1.48.35,3,3,0,0,0-1,.83,2.75,2.75,0,0,0-.63,1.33,19.4,19.4,0,0,0-.17,3.25,18.75,18.75,0,0,0,.17,3.21,3.22,3.22,0,0,0,3.13,2.54,3.29,3.29,0,0,0,3.08-2.2Z" transform="translate(-9.2 -8.45)"/><path class="cls-3" d="M313.78,105.93a2.69,2.69,0,0,0,.8,2.1,2.62,2.62,0,0,0,1.94.73,3.44,3.44,0,0,0,2.51-1.11l1.68,1.42a5.4,5.4,0,0,1-4.14,1.86,6.16,6.16,0,0,1-1.77-.26,4.56,4.56,0,0,1-.84-.39,3.85,3.85,0,0,1-.81-.52A4.55,4.55,0,0,1,312,108a7,7,0,0,1-.5-2.88,7.91,7.91,0,0,1,.43-2.83,5,5,0,0,1,1.11-1.82,4.23,4.23,0,0,1,1.53-1,4.94,4.94,0,0,1,1.66-.3,4.64,4.64,0,0,1,4.74,4.86v1.9Zm4.85-1.9a2.9,2.9,0,0,0-.72-2,2.53,2.53,0,0,0-3.41,0,3,3,0,0,0-.72,2Z" transform="translate(-9.2 -8.45)"/><path class="cls-3" d="M323.36,99.32h2.31v1.21h.05a3.72,3.72,0,0,1,3-1.36,4,4,0,0,1,2.61,1,3.89,3.89,0,0,1,1.23,3v7.63h-2.31V104a2.44,2.44,0,0,0-.64-1.83,2.17,2.17,0,0,0-1.63-.64,2.22,2.22,0,0,0-1.64.64,2.45,2.45,0,0,0-.65,1.83v6.84h-2.31V99.32Z" transform="translate(-9.2 -8.45)"/><path class="cls-3" d="M335.66,95.82H338v3.5h1.69v1.76H338v6.69c0,.58.26.87.82.85h.86v2.18h-1.2a2.73,2.73,0,0,1-2-.75,2.66,2.66,0,0,1-.8-2.08v-6.89h-1.15V99.32h1.15v-3.5Z" transform="translate(-9.2 -8.45)"/><path class="cls-3" d="M341.82,99.32h2.32v1.21h0a3.85,3.85,0,0,1,5.4-.47l-1.68,2a2.44,2.44,0,0,0-1.52-.57,2.17,2.17,0,0,0-1.51.57,2.23,2.23,0,0,0-.73,1.83v6.91h-2.32V99.32Z" transform="translate(-9.2 -8.45)"/><path class="cls-3" d="M352,105.93a2.62,2.62,0,0,0,2.74,2.83,3.45,3.45,0,0,0,2.51-1.11l1.67,1.42a5.37,5.37,0,0,1-4.13,1.86,6.16,6.16,0,0,1-1.77-.26,5,5,0,0,1-.85-.39,4.06,4.06,0,0,1-.8-.52,4.68,4.68,0,0,1-1.19-1.79,7.14,7.14,0,0,1-.49-2.88,7.91,7.91,0,0,1,.43-2.83,5,5,0,0,1,1.1-1.82,4.27,4.27,0,0,1,1.54-1,4.9,4.9,0,0,1,1.66-.3,4.81,4.81,0,0,1,3.33,1.3,4.69,4.69,0,0,1,1.4,3.56v1.9Zm4.84-1.9a2.9,2.9,0,0,0-.71-2,2.33,2.33,0,0,0-1.71-.66,2.31,2.31,0,0,0-1.7.66,3,3,0,0,0-.72,2Z" transform="translate(-9.2 -8.45)"/><path class="cls-3" d="M367.36,101.08h-1.17V99.32h1.17V97.8a3,3,0,0,1,.9-2.41,3.41,3.41,0,0,1,2.23-.72H372v2.18h-1.32c-.69,0-1,.3-1,1v1.52H372v1.76h-2.31v9.72h-2.31Z" transform="translate(-9.2 -8.45)"/><path class="cls-3" d="M372.72,105.05a10,10,0,0,1,.3-2.79,4,4,0,0,1,1-1.6,4.23,4.23,0,0,1,1.33-1,4.94,4.94,0,0,1,2.16-.46,5.06,5.06,0,0,1,2.2.46,4,4,0,0,1,1.28,1,3.55,3.55,0,0,1,1,1.6,10.52,10.52,0,0,1,.28,2.79,10.17,10.17,0,0,1-.28,2.76,3.83,3.83,0,0,1-1,1.65,3.76,3.76,0,0,1-.54.5,2.54,2.54,0,0,1-.74.47,4.53,4.53,0,0,1-2.2.5,4.42,4.42,0,0,1-2.16-.5,4.28,4.28,0,0,1-1.33-1,4.36,4.36,0,0,1-1-1.65A9.66,9.66,0,0,1,372.72,105.05Zm7.16,0a10.64,10.64,0,0,0-.11-1.79,2.15,2.15,0,0,0-.45-1,1.79,1.79,0,0,0-.76-.61,2.38,2.38,0,0,0-1.1-.23,2.48,2.48,0,0,0-1.09.23,2.11,2.11,0,0,0-.77.61,2.66,2.66,0,0,0-.43,1,8.19,8.19,0,0,0-.14,1.77,8.11,8.11,0,0,0,.14,1.75,2,2,0,0,0,1.2,1.58,2.49,2.49,0,0,0,1.09.24,2.22,2.22,0,0,0,2.31-1.82A10.15,10.15,0,0,0,379.88,105.07Z" transform="translate(-9.2 -8.45)"/><path class="cls-3" d="M384.61,99.32h2.32v1.21h0a3.85,3.85,0,0,1,5.4-.47l-1.68,2a2.44,2.44,0,0,0-1.52-.57,2.17,2.17,0,0,0-1.51.57,2.23,2.23,0,0,0-.73,1.83v6.91h-2.32V99.32Z" transform="translate(-9.2 -8.45)"/><path class="cls-3" d="M407.34,107.19h-6.12L400,110.8h-2.59l5.86-16.13h2.05l5.86,16.13h-2.57Zm-.7-2.16-2.34-7h0l-2.33,7Z" transform="translate(-9.2 -8.45)"/><path class="cls-3" d="M412.68,99.32H415v1.19a4,4,0,0,1,3-1.34,3.57,3.57,0,0,1,3.08,1.51,3,3,0,0,1,.66,1.42,18.55,18.55,0,0,1,.16,3,18.07,18.07,0,0,1-.16,2.92,3.19,3.19,0,0,1-.66,1.45,3.33,3.33,0,0,1-1.25,1.06,4,4,0,0,1-1.83.43,3.27,3.27,0,0,1-1.58-.38,4.88,4.88,0,0,1-1.39-1v5.88h-2.31Zm4.58,9.3a2.3,2.3,0,0,0,1.29-.31,1.74,1.74,0,0,0,.68-.82,4,4,0,0,0,.3-1.15c0-.41,0-.83,0-1.27s0-.9,0-1.34a3.87,3.87,0,0,0-.3-1.15,1.61,1.61,0,0,0-.68-.82,2.58,2.58,0,0,0-1.29-.27,2,2,0,0,0-1.23.32,1.85,1.85,0,0,0-.7.84,4.06,4.06,0,0,0-.27,1.13,11.15,11.15,0,0,0-.07,1.29,10,10,0,0,0,.07,1.22,4.11,4.11,0,0,0,.27,1.16,1.85,1.85,0,0,0,.7.84A2,2,0,0,0,417.26,108.62Z" transform="translate(-9.2 -8.45)"/><path class="cls-3" d="M424.44,99.32h2.31v1.19a4,4,0,0,1,3-1.34,3.58,3.58,0,0,1,3.09,1.51,2.88,2.88,0,0,1,.65,1.42,18.24,18.24,0,0,1,.17,3,17.78,17.78,0,0,1-.17,2.92,3.08,3.08,0,0,1-.65,1.45,3.41,3.41,0,0,1-1.25,1.06,4,4,0,0,1-1.84.43,3.3,3.3,0,0,1-1.58-.38,5,5,0,0,1-1.38-1v5.88h-2.31Zm4.58,9.3a2.28,2.28,0,0,0,1.29-.31,1.74,1.74,0,0,0,.68-.82,4,4,0,0,0,.3-1.15c0-.41,0-.83,0-1.27s0-.9,0-1.34a3.87,3.87,0,0,0-.3-1.15,1.61,1.61,0,0,0-.68-.82,2.58,2.58,0,0,0-1.29-.27,2,2,0,0,0-1.23.32,1.85,1.85,0,0,0-.7.84,4.06,4.06,0,0,0-.27,1.13,11.15,11.15,0,0,0-.07,1.29,10,10,0,0,0,.07,1.22,4.11,4.11,0,0,0,.27,1.16,1.85,1.85,0,0,0,.7.84A2,2,0,0,0,429,108.62Z" transform="translate(-9.2 -8.45)"/><path class="cls-3" d="M436.2,94.67h2.31v13.16c0,.53.29.79.86.79h.8v2.18h-1a3.32,3.32,0,0,1-2.08-.63,2.54,2.54,0,0,1-.86-2.16V94.67Z" transform="translate(-9.2 -8.45)"/><path class="cls-3" d="M442.11,94.67h2.31V97h-2.31Zm0,4.65h2.31V110.8h-2.31Z" transform="translate(-9.2 -8.45)"/><path class="cls-3" d="M449.22,105.93a2.62,2.62,0,0,0,2.74,2.83,3.45,3.45,0,0,0,2.51-1.11l1.67,1.42a5.37,5.37,0,0,1-4.13,1.86,6.16,6.16,0,0,1-1.77-.26,5,5,0,0,1-.85-.39,4.06,4.06,0,0,1-.8-.52A4.68,4.68,0,0,1,447.4,108a7.12,7.12,0,0,1-.5-2.88,7.89,7.89,0,0,1,.44-2.83,4.88,4.88,0,0,1,1.1-1.82,4.27,4.27,0,0,1,1.54-1,4.9,4.9,0,0,1,1.66-.3,4.81,4.81,0,0,1,3.33,1.3,4.69,4.69,0,0,1,1.4,3.56v1.9Zm4.84-1.9a2.9,2.9,0,0,0-.72-2,2.52,2.52,0,0,0-3.4,0,3,3,0,0,0-.72,2Z" transform="translate(-9.2 -8.45)"/><path class="cls-3" d="M465.67,109.59a3.89,3.89,0,0,1-3,1.34,3.78,3.78,0,0,1-1.78-.43,3.83,3.83,0,0,1-1.29-1.06A2.84,2.84,0,0,1,459,108a15.39,15.39,0,0,1-.19-2.92,15.54,15.54,0,0,1,.19-3,2.78,2.78,0,0,1,.63-1.42,3.56,3.56,0,0,1,3.07-1.51,3.62,3.62,0,0,1,1.64.37,7.11,7.11,0,0,1,1.34,1V94.67H468V110.8h-2.31Zm-2.27-8.1a2.37,2.37,0,0,0-1.25.27,1.75,1.75,0,0,0-.7.82,4.06,4.06,0,0,0-.27,1.13,11.66,11.66,0,0,0-.07,1.34,10.58,10.58,0,0,0,.07,1.27,4.18,4.18,0,0,0,.27,1.17,1.91,1.91,0,0,0,.7.82,2.1,2.1,0,0,0,1.25.31,2.2,2.2,0,0,0,1.29-.33,1.69,1.69,0,0,0,.66-.84,5.05,5.05,0,0,0,.3-1.16c0-.42,0-.84,0-1.24s0-.87,0-1.27a4.8,4.8,0,0,0-.3-1.13,1.61,1.61,0,0,0-.66-.84A2.2,2.2,0,0,0,463.4,101.49Z" transform="translate(-9.2 -8.45)"/><path class="cls-3" d="M476.2,94.67h2.3l4.62,10.51,4.54-10.51H490V110.8h-2.44V100.74h-.06l-3.37,7.75h-2l-3.37-7.75h0V110.8H476.2V94.67Z" transform="translate(-9.2 -8.45)"/><path class="cls-3" d="M499.19,109.78h-.05a1.87,1.87,0,0,1-1,.86,4.6,4.6,0,0,1-1.84.29,4.13,4.13,0,0,1-3-1,3.15,3.15,0,0,1-1.1-2.48,3.26,3.26,0,0,1,.95-2.4,3.82,3.82,0,0,1,2.79-1h3.2v-1.21c0-1-.77-1.5-2.36-1.47a4.14,4.14,0,0,0-1.36.18,1.67,1.67,0,0,0-.82.71l-1.81-1.39a4.47,4.47,0,0,1,3.88-1.68,6.18,6.18,0,0,1,3.46.82,3.32,3.32,0,0,1,1.32,3v7.84h-2.31v-1Zm0-3.85h-2.77c-1.34,0-2,.49-2,1.39a1.21,1.21,0,0,0,.52,1,2.43,2.43,0,0,0,1.65.45,4,4,0,0,0,2-.34c.37-.24.55-.8.55-1.66Z" transform="translate(-9.2 -8.45)"/><path class="cls-3" d="M504.62,95.82h2.31v3.5h1.68v1.76h-1.68v6.69c0,.58.26.87.82.85h.86v2.18h-1.2a2.73,2.73,0,0,1-2-.75,2.66,2.66,0,0,1-.8-2.08v-6.89h-1.15V99.32h1.15v-3.5Z" transform="translate(-9.2 -8.45)"/><path class="cls-3" d="M510.78,94.67h2.31v5.86h0a3.72,3.72,0,0,1,3-1.36,3.91,3.91,0,0,1,2.61,1,3.84,3.84,0,0,1,1.23,3v7.63h-2.31V104a2.44,2.44,0,0,0-.64-1.83,2.18,2.18,0,0,0-1.63-.65,2.23,2.23,0,0,0-1.64.65,2.45,2.45,0,0,0-.65,1.83v6.84h-2.31V94.67Z" transform="translate(-9.2 -8.45)"/><path class="cls-3" d="M524.7,105.93a2.62,2.62,0,0,0,2.74,2.83,3.45,3.45,0,0,0,2.51-1.11l1.67,1.42a5.37,5.37,0,0,1-4.14,1.86,6.27,6.27,0,0,1-1.77-.26,5.26,5.26,0,0,1-.84-.39,3.85,3.85,0,0,1-.81-.52,4.66,4.66,0,0,1-1.18-1.79,7.12,7.12,0,0,1-.5-2.88,8.14,8.14,0,0,1,.43-2.83,5,5,0,0,1,1.11-1.82,4.27,4.27,0,0,1,1.54-1,4.9,4.9,0,0,1,1.66-.3,4.81,4.81,0,0,1,3.33,1.3,4.69,4.69,0,0,1,1.4,3.56v1.9Zm4.84-1.9a2.9,2.9,0,0,0-.72-2,2.52,2.52,0,0,0-3.4,0,3,3,0,0,0-.72,2Z" transform="translate(-9.2 -8.45)"/><path class="cls-3" d="M534.41,99.32h2.31v1.21h0a3.74,3.74,0,0,1,3-1.36,4.35,4.35,0,0,1,1.93.41,5.94,5.94,0,0,1,1.32,1.1,4.51,4.51,0,0,1,3.61-1.51,4,4,0,0,1,2.61,1,3.89,3.89,0,0,1,1.22,3v7.63h-2.31V104a2.48,2.48,0,0,0-.63-1.83,2.18,2.18,0,0,0-1.63-.64,2.22,2.22,0,0,0-1.64.64,2.45,2.45,0,0,0-.65,1.83v6.84h-2.31V104a2.48,2.48,0,0,0-.63-1.83,2.22,2.22,0,0,0-1.64-.64,2.2,2.2,0,0,0-1.63.64,2.41,2.41,0,0,0-.66,1.83v6.84h-2.31V99.32Z" transform="translate(-9.2 -8.45)"/><path class="cls-3" d="M559.61,109.78h0a1.93,1.93,0,0,1-1,.86,4.56,4.56,0,0,1-1.84.29,4.13,4.13,0,0,1-3-1,3.15,3.15,0,0,1-1.1-2.48,3.26,3.26,0,0,1,1-2.4,3.84,3.84,0,0,1,2.79-1h3.2v-1.21c0-1-.77-1.5-2.36-1.47a4.14,4.14,0,0,0-1.36.18,1.71,1.71,0,0,0-.82.71l-1.81-1.39a4.47,4.47,0,0,1,3.88-1.68,6.24,6.24,0,0,1,3.47.82,3.34,3.34,0,0,1,1.31,3v7.84h-2.31v-1Zm0-3.85h-2.77c-1.34,0-2,.49-2,1.39a1.23,1.23,0,0,0,.52,1,2.45,2.45,0,0,0,1.65.45,4,4,0,0,0,2.05-.34c.36-.24.54-.8.54-1.66v-.83Z" transform="translate(-9.2 -8.45)"/><path class="cls-3" d="M565,95.82h2.31v3.5H569v1.76h-1.69v6.69c0,.58.26.87.82.85H569v2.18h-1.2a2.73,2.73,0,0,1-2-.75A2.66,2.66,0,0,1,565,108v-6.89h-1.15V99.32H565v-3.5Z" transform="translate(-9.2 -8.45)"/><path class="cls-3" d="M571.27,94.67h2.31V97h-2.31Zm0,4.65h2.31V110.8h-2.31Z" transform="translate(-9.2 -8.45)"/><path class="cls-3" d="M585.09,108.94a6.33,6.33,0,0,1-1.77,1.41,5,5,0,0,1-2.36.58,5.16,5.16,0,0,1-3.57-1.38,5.77,5.77,0,0,1-1.64-4.48,5.9,5.9,0,0,1,1.64-4.54A5.1,5.1,0,0,1,581,99.17a5.23,5.23,0,0,1,2.36.56,6,6,0,0,1,1.77,1.45l-1.71,1.51a2.89,2.89,0,0,0-2.33-1.2q-2.94,0-3,3.58c0,2.4,1,3.59,3,3.55a2.81,2.81,0,0,0,2.33-1.19Z" transform="translate(-9.2 -8.45)"/><path class="cls-3" d="M590.66,108.76a3.05,3.05,0,0,0,1.63-.38,1.21,1.21,0,0,0,.63-1.09,1,1,0,0,0-.38-.86,2,2,0,0,0-1-.28l-2-.17a3.9,3.9,0,0,1-2.36-1,3,3,0,0,1-1-2.29,3.11,3.11,0,0,1,1.25-2.65,5,5,0,0,1,3-.89,10.13,10.13,0,0,1,1.43.1,8.13,8.13,0,0,1,1.18.31,7,7,0,0,1,1.91,1.16l-1.43,1.67a7.45,7.45,0,0,0-1.41-.78,4.55,4.55,0,0,0-1.68-.28,2.25,2.25,0,0,0-1.51.39,1.24,1.24,0,0,0-.46,1,.78.78,0,0,0,.35.67,2,2,0,0,0,1.17.41l1.9.14a3.54,3.54,0,0,1,2.59,1.09,3.67,3.67,0,0,1,.74,2.35,3,3,0,0,1-1.36,2.58,5.86,5.86,0,0,1-3.4,1,7.29,7.29,0,0,1-5.05-2.05l1.61-1.59A4.81,4.81,0,0,0,590.66,108.76Z" transform="translate(-9.2 -8.45)"/></g><g class="cls-2"><path class="cls-3" d="M299.5,126.86h2.31v2.31H299.5Zm0,4.64h2.31V143H299.5Z" transform="translate(-9.2 -8.45)"/><path class="cls-3" d="M304.86,131.5h2.32v1.22h0a3.71,3.71,0,0,1,3-1.36,3.82,3.82,0,0,1,3.84,4V143h-2.32v-6.84a2.45,2.45,0,0,0-.64-1.84,2.16,2.16,0,0,0-1.62-.64,2.21,2.21,0,0,0-1.64.64,2.42,2.42,0,0,0-.65,1.84V143h-2.31V131.5Z" transform="translate(-9.2 -8.45)"/><path class="cls-3" d="M322.68,126.86h6.25a5,5,0,0,1,3.57,1.19,4.2,4.2,0,0,1,1.2,3.13,3.65,3.65,0,0,1-.47,1.9,2.92,2.92,0,0,1-.73.82,5.46,5.46,0,0,1-1.17.74v.05a3.28,3.28,0,0,1,2,1.38,4.53,4.53,0,0,1,.63,2.33,4.41,4.41,0,0,1-1.31,3.31,4.29,4.29,0,0,1-3.17,1.27h-6.79V126.86Zm2.44,2.18v4.61h3.53a2.52,2.52,0,0,0,2-.7,2.17,2.17,0,0,0,.64-1.61,2.29,2.29,0,0,0-.64-1.65,2.74,2.74,0,0,0-2-.65Zm0,6.79v4.84h3.76a2.55,2.55,0,0,0,2-.74,2.44,2.44,0,0,0,.63-1.68,2.47,2.47,0,0,0-.63-1.7,2.58,2.58,0,0,0-2-.72Z" transform="translate(-9.2 -8.45)"/><path class="cls-3" d="M336.35,126.86h2.31v2.31h-2.31Zm0,4.64h2.31V143h-2.31Z" transform="translate(-9.2 -8.45)"/><path class="cls-3" d="M341.15,137.23a9.86,9.86,0,0,1,.3-2.78,3.94,3.94,0,0,1,.95-1.61,4.54,4.54,0,0,1,1.33-1,5,5,0,0,1,2.15-.45,5.19,5.19,0,0,1,2.2.45,4.33,4.33,0,0,1,1.29,1,3.67,3.67,0,0,1,1,1.61,10.39,10.39,0,0,1,.28,2.78,10.74,10.74,0,0,1-.28,2.77,4.06,4.06,0,0,1-1,1.65,3.35,3.35,0,0,1-.55.49,2.26,2.26,0,0,1-.74.48,4.62,4.62,0,0,1-2.2.5,4.49,4.49,0,0,1-2.15-.5,4.45,4.45,0,0,1-1.33-1,4.38,4.38,0,0,1-.95-1.65A9.78,9.78,0,0,1,341.15,137.23Zm7.16,0a10.81,10.81,0,0,0-.11-1.79,2.16,2.16,0,0,0-.46-1,1.7,1.7,0,0,0-.75-.61,2.72,2.72,0,0,0-2.19,0,2,2,0,0,0-.77.61,2.68,2.68,0,0,0-.44,1,9.23,9.23,0,0,0-.13,1.77,8.92,8.92,0,0,0,.13,1.75,2.93,2.93,0,0,0,.44,1,2.78,2.78,0,0,0,.77.58,2.46,2.46,0,0,0,1.09.25,2.41,2.41,0,0,0,1.1-.25,2.19,2.19,0,0,0,.75-.58,2.35,2.35,0,0,0,.46-1A10.06,10.06,0,0,0,348.31,137.25Z" transform="translate(-9.2 -8.45)"/><path class="cls-3" d="M357,141a3,3,0,0,0,1.63-.39,1.21,1.21,0,0,0,.63-1.08.93.93,0,0,0-.38-.86,1.9,1.9,0,0,0-1-.28l-2-.18a3.9,3.9,0,0,1-2.36-1,3,3,0,0,1-1-2.29,3.16,3.16,0,0,1,1.25-2.66,5,5,0,0,1,3-.88,8.74,8.74,0,0,1,1.43.1,7.14,7.14,0,0,1,1.19.31,6.83,6.83,0,0,1,1.9,1.16l-1.43,1.67a6.65,6.65,0,0,0-1.4-.78,4.64,4.64,0,0,0-1.69-.28,2.26,2.26,0,0,0-1.51.39,1.25,1.25,0,0,0-.45,1,.78.78,0,0,0,.34.68,2,2,0,0,0,1.17.41l1.9.14a3.57,3.57,0,0,1,2.59,1.08,3.64,3.64,0,0,1,.74,2.36,3,3,0,0,1-1.36,2.58,5.83,5.83,0,0,1-3.39,1,7.31,7.31,0,0,1-5.06-2.06l1.62-1.58A4.77,4.77,0,0,0,357,141Z" transform="translate(-9.2 -8.45)"/><path class="cls-3" d="M372.37,141.13a6.19,6.19,0,0,1-1.77,1.4,5,5,0,0,1-2.36.59,5.14,5.14,0,0,1-3.57-1.39,5.76,5.76,0,0,1-1.64-4.48,5.89,5.89,0,0,1,1.64-4.53,5.07,5.07,0,0,1,3.57-1.36,5.23,5.23,0,0,1,2.36.55,5.88,5.88,0,0,1,1.77,1.45l-1.71,1.52a2.88,2.88,0,0,0-2.33-1.21q-2.94,0-3,3.59t3,3.55a2.84,2.84,0,0,0,2.33-1.2Z" transform="translate(-9.2 -8.45)"/><path class="cls-3" d="M374,126.86h2.31v2.31H374Zm0,4.64h2.31V143H374Z" transform="translate(-9.2 -8.45)"/><path class="cls-3" d="M381.15,138.12a2.69,2.69,0,0,0,.8,2.1,2.62,2.62,0,0,0,1.94.73,3.45,3.45,0,0,0,2.52-1.12l1.67,1.43a5.47,5.47,0,0,1-4.14,1.86,5.84,5.84,0,0,1-1.77-.27,4,4,0,0,1-.84-.38,4.34,4.34,0,0,1-.81-.53,4.41,4.41,0,0,1-1.18-1.79,6.87,6.87,0,0,1-.5-2.87,8,8,0,0,1,.43-2.84,5,5,0,0,1,1.11-1.81,4.1,4.1,0,0,1,1.53-1,4.94,4.94,0,0,1,1.66-.3,4.62,4.62,0,0,1,4.74,4.85v1.91Zm4.85-1.91a2.92,2.92,0,0,0-.72-2,2.56,2.56,0,0,0-3.41,0,3.07,3.07,0,0,0-.72,2Z" transform="translate(-9.2 -8.45)"/><path class="cls-3" d="M390.73,131.5H393v1.22h0a3.69,3.69,0,0,1,3-1.36,3.88,3.88,0,0,1,2.61,1,3.82,3.82,0,0,1,1.23,3V143H397.6v-6.84a2.45,2.45,0,0,0-.64-1.84,2.17,2.17,0,0,0-1.63-.64,2.22,2.22,0,0,0-1.64.64,2.46,2.46,0,0,0-.65,1.84V143h-2.31V131.5Z" transform="translate(-9.2 -8.45)"/><path class="cls-3" d="M411.35,141.13a6.19,6.19,0,0,1-1.77,1.4,5,5,0,0,1-2.35.59,5.17,5.17,0,0,1-3.58-1.39q-1.59-1.38-1.63-4.48a5.89,5.89,0,0,1,1.63-4.53,5.1,5.1,0,0,1,3.58-1.36,5.19,5.19,0,0,1,2.35.55,5.88,5.88,0,0,1,1.77,1.45l-1.7,1.52a2.88,2.88,0,0,0-2.34-1.21q-2.94,0-3,3.59t3,3.55a2.85,2.85,0,0,0,2.34-1.2Z" transform="translate(-9.2 -8.45)"/><path class="cls-3" d="M414.7,138.12a2.69,2.69,0,0,0,.8,2.1,2.63,2.63,0,0,0,1.95.73,3.44,3.44,0,0,0,2.51-1.12l1.67,1.43a5.44,5.44,0,0,1-4.14,1.86,5.94,5.94,0,0,1-1.77-.27,4,4,0,0,1-.84-.38,4.34,4.34,0,0,1-.81-.53,4.41,4.41,0,0,1-1.18-1.79,7,7,0,0,1-.5-2.87,8,8,0,0,1,.43-2.84,5,5,0,0,1,1.11-1.81,4.18,4.18,0,0,1,1.53-1,5,5,0,0,1,1.66-.3,4.62,4.62,0,0,1,4.74,4.85v1.91Zm4.85-1.91a2.92,2.92,0,0,0-.72-2,2.34,2.34,0,0,0-1.7-.65,2.36,2.36,0,0,0-1.71.65,3.12,3.12,0,0,0-.72,2Z" transform="translate(-9.2 -8.45)"/><path class="cls-3" d="M435.74,142h0a1.89,1.89,0,0,1-1,.86,4.72,4.72,0,0,1-1.83.29,4.25,4.25,0,0,1-3-1,3.18,3.18,0,0,1-1.09-2.49,3.22,3.22,0,0,1,.95-2.4,3.8,3.8,0,0,1,2.79-1h3.19V135c0-1-.77-1.5-2.35-1.47a4.42,4.42,0,0,0-1.36.17,1.72,1.72,0,0,0-.82.71L429.39,133a4.49,4.49,0,0,1,3.89-1.68,6.12,6.12,0,0,1,3.46.82,3.35,3.35,0,0,1,1.32,3V143h-2.32v-1Zm0-3.85H433c-1.34,0-2,.49-2,1.38a1.24,1.24,0,0,0,.52,1,2.42,2.42,0,0,0,1.64.45,4,4,0,0,0,2.05-.34c.36-.25.54-.8.54-1.66Z" transform="translate(-9.2 -8.45)"/><path class="cls-3" d="M441,131.5h2.32v1.22h0a3.69,3.69,0,0,1,3-1.36,3.9,3.9,0,0,1,2.61,1,3.85,3.85,0,0,1,1.22,3V143h-2.31v-6.84a2.45,2.45,0,0,0-.64-1.84,2.4,2.4,0,0,0-3.26,0,2.42,2.42,0,0,0-.66,1.84V143H441V131.5Z" transform="translate(-9.2 -8.45)"/><path class="cls-3" d="M460.08,141.78a3.92,3.92,0,0,1-6.05-.16,2.84,2.84,0,0,1-.63-1.47,22.69,22.69,0,0,1,0-5.86,2.81,2.81,0,0,1,.63-1.43,3.56,3.56,0,0,1,3.08-1.5,3.71,3.71,0,0,1,1.63.36,6.49,6.49,0,0,1,1.34,1v-5.86h2.31V143h-2.31Zm-2.27-8.11a2.29,2.29,0,0,0-1.25.28,1.76,1.76,0,0,0-.69.81,4.16,4.16,0,0,0-.28,1.13c0,.44-.07.88-.07,1.34s0,.86.07,1.27a4.17,4.17,0,0,0,.28,1.18,1.86,1.86,0,0,0,.69.81,2.12,2.12,0,0,0,1.25.31,2.25,2.25,0,0,0,1.3-.33,1.64,1.64,0,0,0,.65-.84,4,4,0,0,0,.3-1.16c0-.42,0-.83,0-1.24s0-.86,0-1.27a4.18,4.18,0,0,0-.3-1.13,1.68,1.68,0,0,0-.65-.84A2.34,2.34,0,0,0,457.81,133.67Z" transform="translate(-9.2 -8.45)"/><path class="cls-3" d="M470.61,126.86h2.3l4.63,10.51,4.53-10.51h2.32V143h-2.45V132.93h-.05l-3.38,7.74h-2l-3.38-7.74h0V143h-2.45V126.86Z" transform="translate(-9.2 -8.45)"/><path class="cls-3" d="M489.32,138.12a2.62,2.62,0,0,0,2.74,2.83,3.43,3.43,0,0,0,2.51-1.12l1.67,1.43a5.44,5.44,0,0,1-4.13,1.86,5.84,5.84,0,0,1-1.77-.27,4.26,4.26,0,0,1-.85-.38,4.62,4.62,0,0,1-.8-.53,4.53,4.53,0,0,1-1.19-1.79,7.05,7.05,0,0,1-.49-2.87,8,8,0,0,1,.43-2.84,5,5,0,0,1,1.1-1.81,4.14,4.14,0,0,1,1.54-1,4.9,4.9,0,0,1,1.66-.3,4.75,4.75,0,0,1,3.33,1.29,4.69,4.69,0,0,1,1.4,3.56v1.91Zm4.84-1.91a2.91,2.91,0,0,0-.71-2,2.38,2.38,0,0,0-1.71-.65,2.34,2.34,0,0,0-1.7.65,3,3,0,0,0-.72,2Z" transform="translate(-9.2 -8.45)"/><path class="cls-3" d="M505.77,141.78a3.92,3.92,0,0,1-6-.16,2.84,2.84,0,0,1-.63-1.47,22.69,22.69,0,0,1,0-5.86,2.81,2.81,0,0,1,.63-1.43,3.55,3.55,0,0,1,3.07-1.5,3.75,3.75,0,0,1,1.64.36,6.49,6.49,0,0,1,1.34,1v-5.86h2.31V143h-2.31Zm-2.27-8.11a2.29,2.29,0,0,0-1.25.28,1.76,1.76,0,0,0-.69.81,3.82,3.82,0,0,0-.28,1.13c0,.44-.07.88-.07,1.34s0,.86.07,1.27a4.17,4.17,0,0,0,.28,1.18,1.86,1.86,0,0,0,.69.81,2.12,2.12,0,0,0,1.25.31,2.25,2.25,0,0,0,1.3-.33,1.64,1.64,0,0,0,.65-.84,4,4,0,0,0,.3-1.16c0-.42,0-.83,0-1.24s0-.86,0-1.27a4.18,4.18,0,0,0-.3-1.13,1.68,1.68,0,0,0-.65-.84A2.34,2.34,0,0,0,503.5,133.67Z" transform="translate(-9.2 -8.45)"/><path class="cls-3" d="M512.41,138.12a2.62,2.62,0,0,0,2.74,2.83,3.43,3.43,0,0,0,2.51-1.12l1.67,1.43a5.44,5.44,0,0,1-4.14,1.86,5.94,5.94,0,0,1-1.77-.27,4.45,4.45,0,0,1-.84-.38,5.12,5.12,0,0,1-.81-.53,4.51,4.51,0,0,1-1.18-1.79,7,7,0,0,1-.5-2.87,8,8,0,0,1,.44-2.84,4.84,4.84,0,0,1,1.1-1.81,4.14,4.14,0,0,1,1.54-1,4.9,4.9,0,0,1,1.66-.3,4.75,4.75,0,0,1,3.33,1.29,4.69,4.69,0,0,1,1.4,3.56v1.91Zm4.84-1.91a2.92,2.92,0,0,0-.72-2,2.55,2.55,0,0,0-3.4,0,3,3,0,0,0-.72,2Z" transform="translate(-9.2 -8.45)"/><path class="cls-3" d="M530.44,141.13a6.19,6.19,0,0,1-1.77,1.4,5,5,0,0,1-2.36.59,5.13,5.13,0,0,1-3.57-1.39,5.76,5.76,0,0,1-1.64-4.48,5.89,5.89,0,0,1,1.64-4.53,5.05,5.05,0,0,1,3.57-1.36,5.23,5.23,0,0,1,2.36.55,5.88,5.88,0,0,1,1.77,1.45l-1.71,1.52a2.88,2.88,0,0,0-2.33-1.21q-2.94,0-3,3.59t3,3.55a2.84,2.84,0,0,0,2.33-1.2Z" transform="translate(-9.2 -8.45)"/><path class="cls-3" d="M532.11,126.86h2.31v2.31h-2.31Zm0,4.64h2.31V143h-2.31Z" transform="translate(-9.2 -8.45)"/><path class="cls-3" d="M537.47,131.5h2.32v1.22h0a3.71,3.71,0,0,1,3-1.36,3.82,3.82,0,0,1,3.84,4V143h-2.31v-6.84a2.46,2.46,0,0,0-.65-1.84,2.16,2.16,0,0,0-1.62-.64,2.21,2.21,0,0,0-1.64.64,2.42,2.42,0,0,0-.65,1.84V143h-2.31V131.5Z" transform="translate(-9.2 -8.45)"/><path class="cls-3" d="M551.39,138.12a2.69,2.69,0,0,0,.8,2.1,2.63,2.63,0,0,0,1.95.73,3.44,3.44,0,0,0,2.51-1.12l1.67,1.43a5.47,5.47,0,0,1-4.14,1.86,5.89,5.89,0,0,1-1.77-.27,4,4,0,0,1-.84-.38,4.34,4.34,0,0,1-.81-.53,4.53,4.53,0,0,1-1.19-1.79,7.05,7.05,0,0,1-.49-2.87,8,8,0,0,1,.43-2.84,5,5,0,0,1,1.1-1.81,4.14,4.14,0,0,1,1.54-1,4.94,4.94,0,0,1,1.66-.3,4.62,4.62,0,0,1,4.74,4.85v1.91Zm4.85-1.91a2.92,2.92,0,0,0-.72-2,2.36,2.36,0,0,0-1.71-.65,2.34,2.34,0,0,0-1.7.65,3.07,3.07,0,0,0-.72,2Z" transform="translate(-9.2 -8.45)"/></g><polygon class="cls-4" points="124.36 114.91 124.22 115.1 124.14 115.27 123.94 115.47 108.65 128.64 108.65 146.03 108.58 146.36 108.38 146.63 108.09 146.93 107.67 147.16 107.19 147.33 106.63 147.49 106 147.56 105.3 147.59 104.68 147.56 104.04 147.49 103.49 147.33 103 147.16 102.58 146.93 102.3 146.63 102.09 146.36 102.02 146.03 102.02 128.04 102.16 127.84 102.23 127.64 102.44 127.47 117.73 114.27 117.73 102.73 117.8 102.4 118 102.1 118.28 101.84 118.7 101.6 119.19 101.44 119.75 101.27 120.38 101.17 121.08 101.14 121.7 101.17 122.33 101.27 122.89 101.44 123.38 101.6 123.8 101.84 124.07 102.1 124.29 102.4 124.36 102.73 124.36 114.91 124.36 114.91"/><polygon class="cls-4" points="150.54 118.63 150.61 119.07 150.82 119.46 151.11 119.81 151.52 120.12 152.02 120.39 152.58 120.56 153.22 120.7 153.92 120.74 165.05 120.74 165.05 145.08 165.12 145.48 165.33 145.87 165.69 146.23 166.04 146.53 166.53 146.8 167.09 146.97 167.73 147.1 168.43 147.15 169.07 147.1 169.7 146.97 170.26 146.8 170.76 146.53 171.18 146.23 171.53 145.87 171.67 145.48 171.74 145.08 171.74 118.63 171.67 118.23 171.53 117.84 171.18 117.49 170.76 117.18 170.26 116.92 169.7 116.74 169.07 116.61 168.43 116.56 157.23 116.56 157.23 103.25 157.16 102.81 156.95 102.42 156.67 102.06 156.24 101.75 155.75 101.53 155.19 101.31 154.56 101.18 153.92 101.14 153.22 101.18 152.58 101.31 152.02 101.53 151.52 101.75 151.11 102.06 150.82 102.42 150.61 102.81 150.54 103.25 150.54 118.63 150.54 118.63"/><polygon class="cls-4" points="134.22 121 134.29 121.86 134.5 122.72 134.79 123.48 135.22 124.16 135.72 124.72 136.29 125.2 136.93 125.39 137.64 125.49 138.28 125.39 138.93 125.2 139.49 124.72 139.99 124.16 140.42 123.48 140.71 122.72 140.92 121.86 140.99 121 140.99 105.63 140.92 104.67 140.71 103.91 140.42 103.05 139.99 102.38 139.49 101.9 138.93 101.42 138.28 101.23 137.64 101.14 136.93 101.23 136.29 101.42 135.72 101.9 135.22 102.38 134.79 103.05 134.5 103.91 134.29 104.67 134.22 105.63 134.22 121 134.22 121"/><polygon class="cls-5" points="100.13 144.87 100.17 145.32 100.22 145.77 100.36 146.22 100.54 146.66 100.77 147.07 101.01 147.44 101.33 147.8 101.66 148.13 102.03 148.41 102.44 148.7 102.86 148.95 103.33 149.11 103.84 149.27 104.34 149.39 104.86 149.47 105.41 149.47 105.92 149.47 106.48 149.39 106.94 149.27 107.45 149.11 107.92 148.95 108.33 148.7 108.75 148.41 109.12 148.13 109.45 147.8 109.77 147.44 110.05 147.07 110.24 146.66 110.42 146.22 110.56 145.77 110.65 145.32 110.65 144.38 110.56 143.93 110.42 143.49 110.24 143.04 110.05 142.63 109.77 142.26 109.45 141.9 109.12 141.57 108.75 141.28 108.33 141 107.92 140.79 107.45 140.59 106.94 140.43 106.48 140.31 105.92 140.27 105.41 140.22 104.86 140.27 104.34 140.31 103.84 140.43 103.33 140.59 102.86 140.79 102.44 141 102.03 141.28 101.66 141.57 101.33 141.9 101.01 142.26 100.77 142.63 100.54 143.04 100.36 143.49 100.22 143.93 100.17 144.38 100.13 144.87 100.13 144.87 100.13 144.87"/><polygon class="cls-5" points="163.11 144.87 163.16 145.33 163.25 145.82 163.34 146.24 163.52 146.69 163.75 147.1 164.03 147.47 164.31 147.85 164.68 148.18 165.05 148.47 165.42 148.76 165.88 149 166.34 149.17 166.81 149.33 167.31 149.46 167.82 149.54 168.37 149.54 168.88 149.54 169.44 149.46 169.94 149.33 170.41 149.17 170.87 149 171.28 148.76 171.7 148.47 172.07 148.18 172.44 147.85 172.72 147.47 172.99 147.1 173.22 146.69 173.36 146.24 173.5 145.82 173.59 145.33 173.64 144.87 173.59 144.37 173.5 143.92 173.36 143.46 173.22 143.01 172.99 142.6 172.72 142.22 172.44 141.85 172.07 141.52 171.7 141.23 171.28 140.94 170.87 140.74 170.41 140.53 169.94 140.37 169.44 140.24 168.88 140.2 168.37 140.16 167.82 140.2 167.31 140.24 166.81 140.37 166.34 140.53 165.88 140.74 165.42 140.94 165.05 141.23 164.68 141.52 164.31 141.85 164.03 142.22 163.75 142.6 163.52 143.01 163.34 143.46 163.25 143.92 163.16 144.37 163.11 144.87 163.11 144.87 163.11 144.87"/><polygon class="cls-5" points="132.11 124.16 132.16 124.61 132.2 125.1 132.34 125.51 132.53 125.96 132.76 126.36 132.99 126.73 133.32 127.1 133.64 127.42 134.01 127.71 134.43 128 134.85 128.24 135.31 128.4 135.82 128.56 136.33 128.69 136.84 128.77 137.4 128.77 137.91 128.77 138.46 128.69 138.93 128.56 139.44 128.4 139.9 128.24 140.32 128 140.74 127.71 141.11 127.42 141.43 127.1 141.76 126.73 142.04 126.36 142.22 125.96 142.41 125.51 142.54 125.1 142.64 124.61 142.64 123.68 142.54 123.23 142.41 122.78 142.22 122.33 142.04 121.96 141.76 121.56 141.43 121.19 141.11 120.86 140.74 120.58 140.32 120.29 139.9 120.09 139.44 119.88 138.93 119.72 138.46 119.6 137.91 119.56 137.4 119.52 136.84 119.56 136.33 119.6 135.82 119.72 135.31 119.88 134.85 120.09 134.43 120.29 134.01 120.58 133.64 120.86 133.32 121.19 132.99 121.56 132.76 121.96 132.53 122.33 132.34 122.78 132.2 123.23 132.16 123.68 132.11 124.16 132.11 124.16 132.11 124.16"/><polygon class="cls-6" points="204.68 124.47 204.88 124.86 205.23 125.21 205.58 125.52 206.07 125.79 206.63 125.96 207.25 126.1 207.94 126.14 208.57 126.1 209.19 125.96 209.75 125.79 210.24 125.52 210.66 125.21 211 124.86 211.14 124.47 211.21 124.07 211.21 103.12 211.14 102.68 211 102.28 210.66 101.93 210.24 101.62 209.75 101.4 209.19 101.18 208.57 101.05 207.94 101.01 207.25 101.05 206.63 101.18 206.07 101.4 205.58 101.62 205.23 101.93 204.88 102.28 204.68 102.68 204.68 124.47 204.68 124.47"/><polygon class="cls-6" points="221.3 131.74 221.37 132.13 221.51 132.53 221.85 132.88 222.27 133.19 222.76 133.46 223.31 133.63 223.94 133.76 224.57 133.81 225.26 133.76 225.89 133.63 226.45 133.46 226.93 133.19 227.28 132.88 227.63 132.53 227.84 132.13 227.84 90.18 227.63 89.79 227.28 89.43 226.93 89.12 226.45 88.9 225.89 88.68 225.26 88.55 224.57 88.51 223.94 88.55 223.31 88.68 222.76 88.9 222.27 89.12 221.85 89.43 221.51 89.79 221.37 90.18 221.3 90.62 221.3 131.74 221.3 131.74"/><polygon class="cls-6" points="237.59 115.82 237.65 116.09 237.79 116.31 237.94 116.53 238.14 116.75 238.35 116.92 238.63 117.1 238.98 117.27 254.41 124.27 254.41 136.41 254.48 136.8 254.69 137.2 254.97 137.55 255.39 137.86 255.88 138.12 256.44 138.34 257.06 138.43 257.69 138.47 258.39 138.43 259.02 138.34 259.58 138.12 260.07 137.86 260.42 137.55 260.77 137.2 260.97 136.8 261.04 136.41 261.04 123.17 260.97 122.95 260.9 122.68 260.84 122.46 260.63 122.24 260.49 122.02 260.2 121.8 259.93 121.63 259.65 121.5 244.22 114.5 244.22 102.67 244.15 102.23 243.94 101.84 243.66 101.48 243.24 101.17 242.75 100.95 242.19 100.73 241.57 100.61 240.87 100.56 240.24 100.61 239.61 100.73 239.05 100.95 238.56 101.17 238.14 101.48 237.87 101.84 237.65 102.23 237.59 102.67 237.59 115.82 237.59 115.82"/><polygon class="cls-7" points="201.91 125.51 201.96 125.96 202.05 126.45 202.14 126.9 202.33 127.3 202.56 127.71 202.84 128.08 203.11 128.45 203.48 128.77 203.85 129.06 204.22 129.34 204.68 129.59 205.15 129.75 205.61 129.91 206.12 130.03 206.62 130.12 207.18 130.12 207.73 130.12 208.24 130.03 208.75 129.91 209.21 129.75 209.67 129.59 210.09 129.34 210.5 129.06 210.88 128.77 211.24 128.45 211.52 128.08 211.8 127.71 212.03 127.3 212.17 126.9 212.31 126.45 212.4 125.96 212.44 125.51 212.4 125.02 212.31 124.57 212.17 124.13 212.03 123.68 211.8 123.31 211.52 122.9 211.24 122.53 210.88 122.21 210.5 121.92 210.09 121.64 209.67 121.44 209.21 121.23 208.75 121.07 208.24 120.94 207.73 120.9 207.18 120.86 206.62 120.9 206.12 120.94 205.61 121.07 205.15 121.23 204.68 121.44 204.22 121.64 203.85 121.92 203.48 122.21 203.11 122.53 202.84 122.9 202.56 123.31 202.33 123.68 202.14 124.13 202.05 124.57 201.96 125.02 201.91 125.51 201.91 125.51 201.91 125.51"/><polygon class="cls-7" points="219.23 135.56 219.28 136.01 219.37 136.51 219.51 136.92 219.65 137.37 219.89 137.79 220.17 138.16 220.45 138.53 220.82 138.86 221.2 139.15 221.62 139.44 222.04 139.69 222.51 139.85 222.98 140.02 223.49 140.15 224.01 140.22 224.57 140.22 225.13 140.22 225.65 140.15 226.16 140.02 226.63 139.85 227.1 139.69 227.57 139.44 227.94 139.15 228.32 138.86 228.69 138.53 228.98 138.16 229.25 137.79 229.49 137.37 229.68 136.92 229.77 136.51 229.87 136.01 229.91 135.56 229.87 135.06 229.77 134.6 229.68 134.15 229.49 133.7 229.25 133.28 228.98 132.91 228.69 132.54 228.32 132.21 227.94 131.92 227.57 131.63 227.1 131.42 226.63 131.22 226.16 131.05 225.65 130.93 225.13 130.89 224.57 130.84 224.01 130.89 223.49 130.93 222.98 131.05 222.51 131.22 222.04 131.42 221.62 131.63 221.2 131.92 220.82 132.21 220.45 132.54 220.17 132.91 219.89 133.28 219.65 133.7 219.51 134.15 219.37 134.6 219.28 135.06 219.23 135.56 219.23 135.56 219.23 135.56"/><polygon class="cls-7" points="252.41 136 252.5 136.49 252.64 136.9 252.78 137.35 253.02 137.76 253.3 138.12 253.58 138.49 253.96 138.82 254.34 139.1 254.76 139.39 255.19 139.63 255.66 139.79 256.13 139.96 256.64 140.08 257.2 140.16 257.72 140.16 258.29 140.16 258.81 140.08 259.32 139.96 259.79 139.79 260.26 139.63 260.73 139.39 261.11 139.1 261.54 138.82 261.86 138.49 262.14 138.12 262.43 137.76 262.66 137.35 262.85 136.9 262.99 136.49 263.04 136 263.08 135.56 263.04 135.07 262.99 134.62 262.85 134.17 262.66 133.72 262.43 133.31 262.14 132.95 261.86 132.58 261.54 132.25 261.11 131.97 260.73 131.68 260.26 131.48 259.79 131.28 259.32 131.11 258.81 130.99 258.29 130.95 257.72 130.91 257.2 130.95 256.64 130.99 256.13 131.11 255.66 131.28 255.19 131.48 254.76 131.68 254.34 131.97 253.96 132.25 253.58 132.58 253.3 132.95 253.02 133.31 252.78 133.72 252.64 134.17 252.5 134.62 252.41 135.07 252.41 136 252.41 136"/><polygon class="cls-8" points="2.13 129.22 2.2 129.62 2.42 130.02 2.77 130.42 3.18 130.72 3.67 130.94 4.3 131.12 4.94 131.25 5.56 131.25 6.19 131.21 6.82 131.08 7.38 130.86 34.19 118.77 34.47 118.59 34.75 118.42 34.96 118.24 35.17 118.02 35.31 117.8 35.45 117.54 35.52 117.32 35.52 101 35.45 100.56 35.31 100.16 34.96 99.81 34.61 99.5 34.05 99.23 33.49 99.05 32.93 98.92 32.23 98.88 31.53 98.92 30.97 99.05 30.34 99.23 29.85 99.5 29.5 99.81 29.15 100.16 29.01 100.56 28.94 101 28.94 115.99 3.53 127.46 2.97 127.77 2.62 128.08 2.35 128.43 2.13 128.83 2.13 129.22 2.13 129.22"/><polygon class="cls-9" points="46.53 131.73 46.59 132.13 46.73 132.53 47.08 132.88 47.49 133.19 47.98 133.46 48.52 133.63 49.14 133.76 49.76 133.81 50.45 133.76 51.07 133.63 51.62 133.46 52.1 133.19 52.44 132.88 52.79 132.53 52.99 132.13 53.06 131.73 53.06 101 52.99 100.56 52.79 100.16 52.44 99.81 52.1 99.5 51.62 99.23 51.07 99.06 50.45 98.92 49.76 98.88 49.14 98.92 48.52 99.06 47.98 99.23 47.49 99.5 47.08 99.81 46.73 100.16 46.59 100.56 46.53 101 46.53 131.73 46.53 131.73"/><polygon class="cls-9" points="62.82 112.47 62.89 112.87 63.03 113.26 63.31 113.62 63.73 113.93 79.83 124.61 79.83 146.32 79.9 146.76 80.11 147.16 80.39 147.51 80.81 147.82 81.3 148.09 81.86 148.26 82.5 148.4 83.2 148.44 83.83 148.4 84.46 148.26 85.03 148.09 85.52 147.82 85.94 147.51 86.22 147.16 86.43 146.76 86.5 146.32 86.5 123.77 86.43 123.37 86.29 122.97 86.01 122.62 85.59 122.31 69.49 111.63 69.49 101 69.42 100.56 69.21 100.16 68.93 99.81 68.51 99.5 68.02 99.23 67.46 99.05 66.82 98.92 66.12 98.88 65.49 98.92 64.86 99.05 64.29 99.23 63.8 99.5 63.38 99.81 63.1 100.16 62.89 100.56 62.82 101 62.82 112.47 62.82 112.47"/><polygon class="cls-10" points="0 130.68 0.1 131.13 0.23 131.59 0.38 132 0.61 132.41 0.89 132.78 1.22 133.15 1.55 133.48 1.93 133.81 2.35 134.06 2.78 134.3 3.25 134.51 3.72 134.63 4.24 134.75 4.8 134.84 5.32 134.88 5.88 134.84 6.4 134.75 6.92 134.63 7.39 134.51 7.86 134.3 8.33 134.06 8.75 133.81 9.13 133.48 9.46 133.15 9.74 132.78 10.02 132.41 10.26 132 10.45 131.59 10.59 131.13 10.64 130.68 10.68 130.19 10.64 129.69 10.59 129.24 10.45 128.79 10.26 128.38 10.02 127.97 9.74 127.55 9.46 127.22 9.13 126.89 8.75 126.56 8.33 126.32 7.86 126.07 7.39 125.86 6.92 125.7 6.4 125.62 5.88 125.53 5.32 125.49 4.8 125.53 4.24 125.62 3.72 125.7 3.25 125.86 2.78 126.07 2.35 126.32 1.93 126.56 1.55 126.89 1.22 127.22 0.89 127.55 0.61 127.97 0.38 128.38 0.23 128.79 0.1 129.24 0 129.69 0 130.68 0 130.68"/><polygon class="cls-10" points="44.45 133.01 44.5 133.46 44.6 133.95 44.74 134.36 44.88 134.81 45.11 135.22 45.39 135.58 45.67 135.95 46.05 136.27 46.42 136.56 46.85 136.84 47.27 137.09 47.73 137.25 48.2 137.41 48.72 137.54 49.28 137.62 49.8 137.62 50.36 137.62 50.87 137.54 51.39 137.41 51.86 137.25 52.33 137.09 52.79 136.84 53.17 136.56 53.59 136.27 53.92 135.95 54.2 135.58 54.48 135.22 54.71 134.81 54.9 134.36 54.99 133.95 55.09 133.46 55.14 133.01 55.09 132.52 54.99 132.07 54.9 131.63 54.71 131.18 54.48 130.77 54.2 130.41 53.92 130.04 53.59 129.71 53.17 129.43 52.79 129.14 52.33 128.94 51.86 128.73 51.39 128.57 50.87 128.45 50.36 128.41 49.8 128.37 49.28 128.41 48.72 128.45 48.2 128.57 47.73 128.73 47.27 128.94 46.85 129.14 46.42 129.43 46.05 129.71 45.67 130.04 45.39 130.41 45.11 130.77 44.88 131.18 44.74 131.63 44.6 132.07 44.5 132.52 44.45 133.01 44.45 133.01 44.45 133.01"/><polygon class="cls-10" points="78.17 145.92 78.21 146.36 78.26 146.85 78.4 147.3 78.58 147.71 78.82 148.12 79.05 148.48 79.37 148.85 79.7 149.18 80.07 149.5 80.49 149.75 80.9 149.99 81.37 150.2 81.88 150.32 82.39 150.44 82.9 150.52 83.46 150.52 83.97 150.52 84.47 150.44 84.98 150.32 85.5 150.2 85.96 149.99 86.38 149.75 86.8 149.5 87.17 149.18 87.49 148.85 87.82 148.48 88.09 148.12 88.28 147.71 88.47 147.3 88.6 146.85 88.7 146.36 88.7 145.43 88.6 144.98 88.47 144.53 88.28 144.12 88.09 143.72 87.82 143.31 87.49 142.98 87.17 142.62 86.8 142.33 86.38 142.08 85.96 141.84 85.5 141.63 84.98 141.47 84.47 141.35 83.97 141.31 83.46 141.27 82.9 141.31 82.39 141.35 81.88 141.47 81.37 141.63 80.9 141.84 80.49 142.08 80.07 142.33 79.7 142.62 79.37 142.98 79.05 143.31 78.82 143.72 78.58 144.12 78.4 144.53 78.26 144.98 78.21 145.43 78.17 145.92 78.17 145.92 78.17 145.92"/><polygon class="cls-11" points="117.29 100.03 117.34 100.78 117.43 101.42 117.57 102.17 117.71 102.81 117.9 103.45 118.09 103.98 118.32 104.51 118.55 104.94 118.83 105.36 119.11 105.79 119.44 106.11 119.77 106.32 120.1 106.54 120.47 106.64 120.8 106.64 121.17 106.64 121.55 106.54 121.88 106.32 122.2 106.11 122.53 105.79 122.81 105.36 123.09 104.94 123.33 104.51 123.56 103.98 123.75 103.45 123.94 102.81 124.08 102.17 124.22 101.42 124.31 100.78 124.36 100.03 124.36 15.15 124.31 14.4 124.22 13.76 124.08 13.02 123.94 12.38 123.75 11.85 123.56 11.21 123.33 10.67 123.09 10.25 122.81 9.82 122.53 9.39 122.2 9.08 121.88 8.86 121.55 8.64 121.17 8.54 120.8 8.54 120.47 8.54 120.1 8.64 119.77 8.86 119.44 9.08 119.11 9.39 118.83 9.82 118.55 10.25 118.32 10.67 118.09 11.21 117.9 11.85 117.71 12.38 117.57 13.02 117.43 13.76 117.34 14.4 117.29 15.15 117.29 100.03 117.29 100.03"/><polygon class="cls-12" points="133.84 100.03 133.88 100.78 133.98 101.42 134.12 102.17 134.26 102.81 134.45 103.45 134.63 103.98 134.87 104.51 135.1 104.94 135.38 105.36 135.66 105.79 135.99 106.11 136.32 106.32 136.65 106.54 137.02 106.64 137.4 106.64 137.73 106.64 138.1 106.54 138.43 106.32 138.75 106.11 139.08 105.79 139.36 105.36 139.65 104.94 139.88 104.51 140.11 103.98 140.3 103.45 140.49 102.81 140.63 102.17 140.77 101.42 140.86 100.78 140.91 100.03 140.91 15.15 140.86 14.4 140.77 13.76 140.63 13.02 140.49 12.38 140.3 11.85 140.11 11.21 139.88 10.67 139.65 10.25 139.36 9.82 139.08 9.39 138.75 9.08 138.43 8.86 138.1 8.64 137.73 8.54 137.4 8.54 137.02 8.54 136.65 8.64 136.32 8.86 135.99 9.08 135.66 9.39 135.38 9.82 135.1 10.25 134.87 10.67 134.63 11.21 134.45 11.85 134.26 12.38 134.12 13.02 133.98 13.76 133.88 14.4 133.84 15.15 133.84 100.03 133.84 100.03"/><polygon class="cls-13" points="150.54 100.03 150.59 100.78 150.68 101.42 150.82 102.17 150.96 102.81 151.15 103.45 151.33 103.98 151.56 104.51 151.84 104.94 152.07 105.36 152.4 105.79 152.68 106.11 153 106.32 153.33 106.54 153.7 106.64 154.08 106.64 154.45 106.64 154.77 106.54 155.1 106.32 155.42 106.11 155.75 105.79 156.03 105.36 156.31 104.94 156.54 104.51 156.77 103.98 157.01 103.45 157.14 102.81 157.33 102.17 157.42 101.42 157.52 100.78 157.56 100.03 157.61 99.28 157.61 15.89 157.56 15.15 157.52 14.4 157.42 13.76 157.33 13.02 157.14 12.38 157.01 11.85 156.77 11.21 156.54 10.67 156.31 10.25 156.03 9.82 155.75 9.39 155.42 9.08 155.1 8.86 154.77 8.64 154.45 8.54 154.08 8.54 153.7 8.54 153.33 8.64 153 8.86 152.68 9.08 152.4 9.39 152.07 9.82 151.84 10.25 151.56 10.67 151.33 11.21 151.15 11.85 150.96 12.38 150.82 13.02 150.68 13.76 150.59 14.4 150.54 15.15 150.54 100.03 150.54 100.03"/><polygon class="cls-14" points="221.03 92.56 221.08 93.25 221.13 93.94 221.22 94.53 221.31 95.23 221.46 95.82 221.64 96.42 221.87 96.91 222.06 97.4 222.34 97.8 222.62 98.19 222.9 98.58 223.22 98.88 223.55 99.07 223.87 99.28 224.2 99.38 224.57 99.38 224.94 99.38 225.27 99.28 225.64 99.07 225.97 98.88 226.24 98.58 226.52 98.19 226.8 97.8 227.08 97.4 227.31 96.91 227.5 96.42 227.69 95.82 227.82 95.23 227.97 94.53 228.01 93.94 228.1 93.25 228.1 14.66 228.01 13.97 227.97 13.38 227.82 12.69 227.69 12.1 227.5 11.5 227.31 11.01 227.08 10.52 226.8 10.12 226.52 9.72 226.24 9.33 225.97 9.04 225.64 8.84 225.27 8.64 224.94 8.54 224.57 8.54 224.2 8.54 223.87 8.64 223.55 8.84 223.22 9.04 222.9 9.33 222.62 9.72 222.34 10.12 222.06 10.52 221.87 11.01 221.64 11.5 221.46 12.1 221.31 12.69 221.22 13.38 221.13 13.97 221.08 14.66 221.03 15.35 221.03 92.56 221.03 92.56"/><polygon class="cls-15" points="204.49 93.25 204.58 93.94 204.67 94.53 204.76 95.23 204.9 95.82 205.09 96.42 205.27 96.91 205.51 97.4 205.79 97.8 206.06 98.19 206.34 98.58 206.63 98.88 206.95 99.07 207.32 99.28 207.65 99.38 208.02 99.38 208.39 99.38 208.72 99.28 209.04 99.07 209.37 98.88 209.69 98.58 209.97 98.19 210.25 97.8 210.53 97.4 210.72 96.91 210.95 96.42 211.13 95.82 211.27 95.23 211.37 94.53 211.46 93.94 211.5 93.25 211.55 92.56 211.55 15.35 211.5 14.66 211.46 13.97 211.37 13.38 211.27 12.69 211.13 12.1 210.95 11.5 210.72 11.01 210.53 10.52 210.25 10.12 209.97 9.72 209.69 9.33 209.37 9.04 209.04 8.84 208.72 8.64 208.39 8.54 208.02 8.54 207.65 8.54 207.32 8.64 206.95 8.84 206.63 9.04 206.34 9.33 206.06 9.72 205.79 10.12 205.51 10.52 205.27 11.01 205.09 11.5 204.9 12.1 204.76 12.69 204.67 13.38 204.58 13.97 204.49 14.66 204.49 93.25 204.49 93.25"/><polygon class="cls-16" points="237.59 92.56 237.63 93.25 237.68 93.94 237.77 94.53 237.87 95.23 238.05 95.82 238.19 96.42 238.43 96.91 238.66 97.4 238.89 97.8 239.17 98.19 239.45 98.58 239.77 98.88 240.1 99.07 240.42 99.28 240.75 99.38 241.12 99.38 241.5 99.38 241.87 99.28 242.19 99.07 242.52 98.88 242.8 98.58 243.12 98.19 243.35 97.8 243.63 97.4 243.87 96.91 244.05 96.42 244.24 95.82 244.38 95.23 244.52 94.53 244.61 93.94 244.66 93.25 244.66 14.66 244.61 13.97 244.52 13.38 244.38 12.69 244.24 12.1 244.05 11.5 243.87 11.01 243.63 10.52 243.35 10.12 243.12 9.72 242.8 9.33 242.52 9.04 242.19 8.84 241.87 8.64 241.5 8.54 241.12 8.54 240.75 8.54 240.42 8.64 240.1 8.84 239.77 9.04 239.45 9.33 239.17 9.72 238.89 10.12 238.66 10.52 238.43 11.01 238.19 11.5 238.05 12.1 237.87 12.69 237.77 13.38 237.68 13.97 237.63 14.66 237.59 15.35 237.59 92.56 237.59 92.56"/><polygon class="cls-17" points="29.71 90.91 29.75 91.59 29.8 92.27 29.9 92.85 29.99 93.53 30.13 94.11 30.31 94.69 30.5 95.18 30.73 95.66 31.01 96.05 31.29 96.43 31.57 96.82 31.85 97.11 32.17 97.3 32.55 97.5 32.87 97.59 33.24 97.59 33.61 97.59 33.94 97.5 34.31 97.3 34.64 97.11 34.92 96.82 35.2 96.43 35.47 96.05 35.75 95.66 35.98 95.18 36.17 94.69 36.36 94.11 36.5 93.53 36.59 92.85 36.69 92.27 36.73 91.59 36.78 90.91 36.78 15.22 36.73 14.54 36.69 13.86 36.59 13.28 36.5 12.61 36.36 12.03 36.17 11.54 35.98 10.96 35.75 10.48 35.47 10.09 35.2 9.7 34.92 9.31 34.64 9.03 34.31 8.83 33.94 8.63 33.61 8.54 33.24 8.54 32.87 8.54 32.55 8.63 32.17 8.83 31.85 9.03 31.57 9.31 31.29 9.7 31.01 10.09 30.73 10.48 30.5 10.96 30.31 11.54 30.13 12.03 29.99 12.61 29.9 13.28 29.8 13.86 29.75 14.54 29.71 15.22 29.71 90.91 29.71 90.91"/><polygon class="cls-18" points="46.26 90.91 46.31 91.59 46.35 92.27 46.45 92.85 46.54 93.53 46.68 94.11 46.87 94.69 47.1 95.18 47.33 95.66 47.56 96.05 47.84 96.43 48.12 96.82 48.45 97.11 48.77 97.3 49.1 97.5 49.42 97.59 49.8 97.59 50.17 97.59 50.49 97.5 50.87 97.3 51.19 97.11 51.47 96.82 51.8 96.43 52.03 96.05 52.31 95.66 52.54 95.18 52.73 94.69 52.91 94.11 53.05 93.53 53.19 92.85 53.24 92.27 53.33 91.59 53.33 14.54 53.24 13.86 53.19 13.28 53.05 12.61 52.91 12.03 52.73 11.54 52.54 10.96 52.31 10.48 52.03 10.09 51.8 9.7 51.47 9.31 51.19 9.03 50.87 8.83 50.49 8.63 50.17 8.54 49.8 8.54 49.42 8.54 49.1 8.63 48.77 8.83 48.45 9.03 48.12 9.31 47.84 9.7 47.56 10.09 47.33 10.48 47.1 10.96 46.87 11.54 46.68 12.03 46.54 12.61 46.45 13.28 46.35 13.86 46.31 14.54 46.26 15.22 46.26 90.91 46.26 90.91"/><polygon class="cls-19" points="62.82 90.91 62.86 91.59 62.91 92.27 63 92.85 63.09 93.53 63.28 94.11 63.42 94.69 63.65 95.18 63.89 95.66 64.12 96.05 64.39 96.43 64.67 96.82 65 97.11 65.33 97.3 65.65 97.5 66.03 97.59 66.35 97.59 66.72 97.59 67.09 97.5 67.42 97.3 67.75 97.11 68.02 96.82 68.35 96.43 68.63 96.05 68.86 95.66 69.09 95.18 69.28 94.69 69.46 94.11 69.61 93.53 69.74 92.85 69.84 92.27 69.88 91.59 69.88 14.54 69.84 13.86 69.74 13.28 69.61 12.61 69.46 12.03 69.28 11.54 69.09 10.96 68.86 10.48 68.63 10.09 68.35 9.7 68.02 9.31 67.75 9.03 67.42 8.83 67.09 8.63 66.72 8.54 66.35 8.54 66.03 8.54 65.65 8.63 65.33 8.83 65 9.03 64.67 9.31 64.39 9.7 64.12 10.09 63.89 10.48 63.65 10.96 63.42 11.54 63.28 12.03 63.09 12.61 63 13.28 62.91 13.86 62.86 14.54 62.82 15.22 62.82 90.91 62.82 90.91"/><polygon class="cls-20" points="19.4 8.21 19.46 9.07 19.52 9.83 19.64 10.59 19.75 11.34 19.93 12.1 20.16 12.74 20.45 13.39 20.68 13.93 21.03 14.47 21.38 15.01 21.73 15.44 22.14 15.77 22.55 15.98 22.95 16.2 23.36 16.31 23.83 16.41 66.65 16.41 67.87 16.41 69.15 16.52 70.31 16.85 71.54 17.17 72.7 17.5 73.87 18.04 75.03 18.58 76.13 19.33 77.18 19.98 78.23 20.85 79.28 21.71 80.26 22.68 81.19 23.76 82.13 24.84 83 25.93 83.87 27.22 84.69 28.52 85.44 29.82 86.14 31.21 86.84 32.62 87.48 34.13 88.06 35.75 88.58 37.26 89.11 38.88 89.52 40.61 89.92 42.34 90.22 44.07 90.51 45.8 90.74 47.64 90.91 49.48 90.97 51.41 91.03 53.25 91.03 57.9 91.2 60.6 91.38 63.3 91.67 65.89 92.07 68.49 92.48 70.97 93 73.45 93.65 75.94 94.29 78.31 95.05 80.58 95.8 82.74 96.67 84.91 97.6 87.07 98.59 89.01 99.64 90.95 100.75 92.79 101.91 94.62 103.13 96.24 104.35 97.87 105.69 99.38 107.03 100.78 108.42 101.97 109.82 103.16 111.28 104.24 112.79 105.21 114.36 106.08 115.93 106.84 117.5 107.38 119.19 107.81 120.82 108.24 122.51 108.35 124.19 108.45 151.02 108.45 152.7 108.35 154.39 108.24 156.08 107.81 157.71 107.38 159.28 106.84 160.85 106.08 162.42 105.21 163.93 104.24 165.39 103.16 166.84 101.97 168.24 100.78 169.58 99.38 170.86 97.87 172.14 96.24 173.3 94.62 174.46 92.79 175.57 90.95 176.62 89.01 177.61 87.07 178.54 84.91 179.41 82.74 180.22 80.58 180.92 78.31 181.62 75.94 182.2 73.45 182.73 70.97 183.19 68.49 183.54 65.89 183.83 63.3 184.07 60.6 184.18 57.9 184.24 55.19 184.24 51.41 184.36 49.48 184.47 47.64 184.71 45.8 185 44.07 185.29 42.34 185.69 40.61 186.16 38.88 186.62 37.26 187.15 35.75 187.73 34.13 188.37 32.62 189.07 31.21 189.77 29.82 190.58 28.52 191.34 27.22 192.21 25.93 193.08 24.84 194.01 23.76 194.95 22.68 195.94 21.71 196.98 20.85 198.03 19.98 199.13 19.33 200.24 18.58 201.35 18.04 202.51 17.5 203.67 17.17 204.9 16.85 206.12 16.52 207.34 16.41 208.62 16.41 251.38 16.41 251.85 16.31 252.26 16.2 252.72 15.98 253.13 15.77 253.48 15.44 253.88 15.01 254.18 14.47 254.53 13.93 254.82 13.39 255.05 12.74 255.28 12.1 255.46 11.34 255.63 10.59 255.69 9.83 255.81 9.07 255.81 7.35 255.69 6.59 255.63 5.72 255.46 4.97 255.28 4.32 255.05 3.56 254.82 3.02 254.53 2.37 254.18 1.83 253.88 1.4 253.48 0.97 253.13 0.64 252.72 0.32 252.26 0.21 251.85 0 251.38 0 208.62 0 206.87 0.1 205.19 0.32 203.56 0.64 201.93 1.08 200.3 1.73 198.73 2.37 197.21 3.24 195.7 4.21 194.19 5.29 192.79 6.48 191.4 7.78 190.06 9.07 188.72 10.59 187.5 12.2 186.27 13.82 185.11 15.66 184.01 17.5 182.96 19.44 181.97 21.39 181.04 23.55 180.22 25.71 179.41 27.87 178.66 30.25 178.01 32.51 177.43 34.99 176.91 37.48 176.44 39.97 176.03 42.56 175.74 45.15 175.57 47.85 175.45 50.55 175.39 53.25 175.39 55.19 175.34 57.03 175.28 58.98 175.1 60.81 174.87 62.65 174.64 64.38 174.29 66.11 173.88 67.84 173.48 69.56 172.95 71.18 172.43 72.8 171.85 74.31 171.21 75.83 170.56 77.23 169.81 78.64 169.05 79.93 168.24 81.23 167.37 82.53 166.49 83.61 165.56 84.69 164.63 85.77 163.64 86.74 162.6 87.61 161.55 88.47 160.5 89.22 159.39 89.88 158.23 90.42 157.07 90.95 155.91 91.28 154.74 91.6 153.52 91.92 152.24 92.03 151.02 92.03 124.19 92.03 122.97 92.03 121.75 91.92 120.53 91.6 119.31 91.28 118.14 90.95 116.98 90.42 115.81 89.88 114.71 89.22 113.66 88.47 112.62 87.61 111.57 86.74 110.58 85.77 109.65 84.69 108.71 83.61 107.84 82.53 106.97 81.23 106.16 79.93 105.4 78.64 104.7 77.23 104 75.83 103.36 74.31 102.78 72.8 102.26 71.18 101.74 69.56 101.33 67.84 100.92 66.11 100.63 64.38 100.34 62.65 100.11 60.81 99.99 58.98 99.87 57.03 99.81 55.19 99.81 50.55 99.64 47.85 99.47 45.15 99.17 42.56 98.77 39.97 98.36 37.48 97.83 34.99 97.2 32.51 96.56 30.25 95.8 27.87 95.05 25.71 94.17 23.55 93.24 21.39 92.25 19.44 91.2 17.5 90.1 15.66 88.94 13.82 87.77 12.2 86.49 10.59 85.21 9.07 83.81 7.78 82.47 6.48 81.02 5.29 79.57 4.21 78.06 3.24 76.48 2.37 74.91 1.73 73.34 1.08 71.71 0.64 70.02 0.32 68.34 0.1 66.65 0 23.83 0 23.36 0 22.95 0.21 22.55 0.32 22.14 0.64 21.73 0.97 21.38 1.4 21.03 1.83 20.68 2.37 20.45 3.02 20.16 3.56 19.93 4.32 19.75 4.97 19.64 5.72 19.52 6.59 19.46 7.35 19.4 8.21 19.4 8.21 19.4 8.21"/><polygon class="cls-21" points="19.4 100.24 19.46 101.11 19.52 101.97 19.64 102.73 19.75 103.49 19.93 104.13 20.16 104.89 20.45 105.43 20.68 106.08 21.03 106.62 21.38 107.05 21.73 107.48 22.14 107.81 22.55 108.13 22.95 108.35 23.36 108.45 23.83 108.45 66.65 108.45 68.34 108.35 70.02 108.24 71.71 107.81 73.34 107.38 74.91 106.84 76.48 106.08 78.06 105.21 79.57 104.24 81.02 103.16 82.47 101.97 83.81 100.78 85.21 99.38 86.49 97.87 87.77 96.24 88.94 94.62 90.1 92.79 91.2 90.95 92.25 89.01 93.24 87.07 94.17 84.91 95.05 82.74 95.8 80.58 96.56 78.31 97.2 75.94 97.83 73.45 98.36 70.97 98.77 68.49 99.17 65.89 99.47 63.3 99.64 60.6 99.81 57.9 99.81 53.25 99.87 51.41 99.99 49.48 100.11 47.64 100.34 45.8 100.63 44.07 100.92 42.34 101.33 40.61 101.74 38.88 102.26 37.26 102.78 35.75 103.36 34.13 104 32.62 104.7 31.21 105.4 29.82 106.16 28.52 106.97 27.22 107.84 25.93 108.71 24.84 109.65 23.76 110.58 22.68 111.57 21.71 112.62 20.85 113.66 19.98 114.71 19.33 115.81 18.58 116.98 18.04 118.14 17.5 119.31 17.17 120.53 16.85 121.75 16.52 122.97 16.41 124.19 16.41 151.02 16.41 152.24 16.41 153.52 16.52 154.74 16.85 155.91 17.17 157.07 17.5 158.23 18.04 159.39 18.58 160.5 19.33 161.55 19.98 162.6 20.85 163.64 21.71 164.63 22.68 165.56 23.76 166.49 24.84 167.37 25.93 168.24 27.22 169.05 28.52 169.81 29.82 170.56 31.21 171.21 32.62 171.85 34.13 172.43 35.75 172.95 37.26 173.48 38.88 173.88 40.61 174.29 42.34 174.64 44.07 174.87 45.8 175.1 47.64 175.28 49.48 175.34 51.41 175.39 53.25 175.39 55.19 175.45 57.9 175.57 60.6 175.74 63.3 176.03 65.89 176.44 68.49 176.91 70.97 177.43 73.45 178.01 75.94 178.66 78.31 179.41 80.58 180.22 82.74 181.04 84.91 181.97 87.07 182.96 89.01 184.01 90.95 185.11 92.79 186.27 94.62 187.5 96.24 188.72 97.87 190.06 99.38 191.4 100.78 192.79 101.97 194.19 103.16 195.7 104.24 197.21 105.21 198.73 106.08 200.3 106.84 201.93 107.38 203.56 107.81 205.19 108.24 206.87 108.35 208.62 108.45 251.38 108.45 251.85 108.45 252.26 108.35 252.72 108.13 253.13 107.81 253.48 107.48 253.88 107.05 254.18 106.62 254.53 106.08 254.82 105.43 255.05 104.89 255.28 104.13 255.46 103.49 255.63 102.73 255.69 101.97 255.81 101.11 255.81 99.38 255.69 98.62 255.63 97.87 255.46 97.11 255.28 96.35 255.05 95.7 254.82 95.06 254.53 94.52 254.18 93.97 253.88 93.43 253.48 93.11 253.13 92.68 252.72 92.46 252.26 92.25 251.85 92.14 251.38 92.03 208.62 92.03 207.34 92.03 206.12 91.92 204.9 91.6 203.67 91.28 202.51 90.95 201.35 90.42 200.24 89.88 199.13 89.22 198.03 88.47 196.98 87.61 195.94 86.74 194.95 85.77 194.01 84.69 193.08 83.61 192.21 82.53 191.34 81.23 190.58 79.93 189.77 78.64 189.07 77.23 188.37 75.83 187.73 74.31 187.15 72.8 186.62 71.18 186.16 69.56 185.69 67.84 185.29 66.11 185 64.38 184.71 62.65 184.47 60.81 184.36 58.98 184.24 57.03 184.24 53.25 184.18 50.55 184.07 47.85 183.83 45.15 183.54 42.56 183.19 39.97 182.73 37.48 182.2 34.99 181.62 32.51 180.92 30.25 180.22 27.87 179.41 25.71 178.54 23.55 177.61 21.39 176.62 19.44 175.57 17.5 174.46 15.66 173.3 13.82 172.14 12.2 170.86 10.59 169.58 9.07 168.24 7.78 166.84 6.48 165.39 5.29 163.93 4.21 162.42 3.24 160.85 2.37 159.28 1.73 157.71 1.08 156.08 0.64 154.39 0.32 152.7 0.1 151.02 0 124.19 0 122.51 0.1 120.82 0.32 119.19 0.64 117.5 1.08 115.93 1.73 114.36 2.37 112.79 3.24 111.28 4.21 109.82 5.29 108.42 6.48 107.03 7.78 105.69 9.07 104.35 10.59 103.13 12.2 101.91 13.82 100.75 15.66 99.64 17.5 98.59 19.44 97.6 21.39 96.67 23.55 95.8 25.71 95.05 27.87 94.29 30.25 93.65 32.51 93 34.99 92.48 37.48 92.07 39.97 91.67 42.56 91.38 45.15 91.2 47.85 91.03 50.55 91.03 55.19 90.97 57.03 90.91 58.98 90.74 60.81 90.51 62.65 90.22 64.38 89.92 66.11 89.52 67.84 89.11 69.56 88.58 71.18 88.06 72.8 87.48 74.31 86.84 75.83 86.14 77.23 85.44 78.64 84.69 79.93 83.87 81.23 83 82.53 82.13 83.61 81.19 84.69 80.26 85.77 79.28 86.74 78.23 87.61 77.18 88.47 76.13 89.22 75.03 89.88 73.87 90.42 72.7 90.95 71.54 91.28 70.31 91.6 69.15 91.92 67.87 92.03 66.65 92.03 23.83 92.03 23.36 92.14 22.95 92.25 22.55 92.46 22.14 92.68 21.73 93.11 21.38 93.43 21.03 93.97 20.68 94.52 20.45 95.06 20.16 95.7 19.93 96.35 19.75 97.11 19.64 97.87 19.52 98.62 19.46 99.38 19.4 100.24 19.4 100.24 19.4 100.24"/></svg>